<svg width="21" height="17" viewBox="0 0 21 17" fill="none" xmlns="http://www.w3.org/2000/svg">
<path id="Vector" d="M20.2556 9.06597L12.7558 16.2656C12.5995 16.4157 12.3874 16.5 12.1663 16.5C11.9452 16.5 11.7331 16.4157 11.5767 16.2656C11.4204 16.1155 11.3325 15.9119 11.3325 15.6996C11.3325 15.4873 11.4204 15.2837 11.5767 15.1336L17.6546 9.29995H1.33331C1.1123 9.29995 0.900345 9.21567 0.74407 9.06565C0.587795 8.91563 0.5 8.71216 0.5 8.5C0.5 8.28784 0.587795 8.08437 0.74407 7.93435C0.900345 7.78432 1.1123 7.70004 1.33331 7.70004H17.6546L11.5767 1.86637C11.4204 1.71626 11.3325 1.51268 11.3325 1.3004C11.3325 1.08812 11.4204 0.884536 11.5767 0.734432C11.7331 0.584328 11.9452 0.5 12.1663 0.5C12.3874 0.5 12.5995 0.584328 12.7558 0.734432L20.2556 7.93403C20.3331 8.00832 20.3945 8.09655 20.4365 8.19366C20.4784 8.29078 20.5 8.39487 20.5 8.5C20.5 8.60513 20.4784 8.70922 20.4365 8.80633C20.3945 8.90345 20.3331 8.99167 20.2556 9.06597Z" fill="#FFFCFC"/>
</svg>
