<svg width="13" height="13" viewBox="0 0 13 13" fill="none" xmlns="http://www.w3.org/2000/svg">
<path id="Vector" d="M12.8866 2.57987C12.8414 2.52579 12.7849 2.48229 12.7211 2.45245C12.6572 2.42261 12.5876 2.40715 12.5171 2.40716H2.80913L2.51486 0.790751C2.47455 0.568892 2.35766 0.368217 2.18456 0.22371C2.01146 0.0792036 1.79314 3.25895e-05 1.56765 0H0.481428C0.353745 0 0.231292 0.0507221 0.141007 0.141008C0.0507217 0.231294 0 0.353748 0 0.481431C0 0.609115 0.0507217 0.731569 0.141007 0.821855C0.231292 0.912141 0.353745 0.962863 0.481428 0.962863H1.56464L3.1028 9.40536C3.14811 9.65574 3.25876 9.88971 3.42356 10.0836C3.19611 10.296 3.03194 10.5673 2.94926 10.8674C2.86658 11.1674 2.86862 11.4845 2.95514 11.7834C3.04167 12.0824 3.2093 12.3516 3.43946 12.5611C3.66961 12.7706 3.95329 12.9122 4.25905 12.9704C4.5648 13.0285 4.88068 13.0008 5.17165 12.8903C5.46262 12.7799 5.71732 12.591 5.90751 12.3447C6.09769 12.0983 6.21593 11.8041 6.24911 11.4946C6.28229 11.1852 6.22911 10.8726 6.09548 10.5915H8.82879C8.72108 10.817 8.66535 11.0638 8.6657 11.3136C8.6657 11.6469 8.76453 11.9727 8.94968 12.2498C9.13483 12.5269 9.39799 12.7428 9.70588 12.8704C10.0138 12.9979 10.3526 13.0313 10.6794 12.9663C11.0063 12.9013 11.3065 12.7408 11.5422 12.5051C11.7778 12.2695 11.9383 11.9692 12.0033 11.6424C12.0683 11.3155 12.035 10.9767 11.9074 10.6688C11.7799 10.3609 11.5639 10.0978 11.2868 9.9126C11.0097 9.72745 10.684 9.62863 10.3507 9.62863H4.52362C4.41087 9.62861 4.30171 9.58903 4.21516 9.51677C4.12861 9.44452 4.07017 9.34418 4.05001 9.23325L3.85925 8.18433H10.84C11.1782 8.18428 11.5057 8.06553 11.7653 7.84877C12.025 7.63201 12.2003 7.33099 12.2608 6.99821L12.9925 2.97464C13.0049 2.9051 13.0019 2.83368 12.9836 2.76546C12.9653 2.69723 12.9322 2.63387 12.8866 2.57987ZM5.29571 11.3136C5.29571 11.4565 5.25336 11.5961 5.17401 11.7148C5.09466 11.8336 4.98187 11.9262 4.84992 11.9808C4.71796 12.0355 4.57277 12.0498 4.43268 12.0219C4.2926 11.994 4.16393 11.9253 4.06293 11.8243C3.96194 11.7233 3.89316 11.5946 3.8653 11.4545C3.83744 11.3144 3.85174 11.1692 3.90639 11.0373C3.96105 10.9053 4.05361 10.7925 4.17237 10.7132C4.29112 10.6338 4.43074 10.5915 4.57357 10.5915C4.76509 10.5915 4.94877 10.6676 5.0842 10.803C5.21963 10.9384 5.29571 11.1221 5.29571 11.3136ZM11.0728 11.3136C11.0728 11.4565 11.0305 11.5961 10.9511 11.7148C10.8718 11.8336 10.759 11.9262 10.6271 11.9808C10.4951 12.0355 10.3499 12.0498 10.2098 12.0219C10.0697 11.994 9.94106 11.9253 9.84007 11.8243C9.73908 11.7233 9.6703 11.5946 9.64244 11.4545C9.61457 11.3144 9.62887 11.1692 9.68353 11.0373C9.73819 10.9053 9.83075 10.7925 9.9495 10.7132C10.0683 10.6338 10.2079 10.5915 10.3507 10.5915C10.5422 10.5915 10.7259 10.6676 10.8613 10.803C10.9968 10.9384 11.0728 11.1221 11.0728 11.3136ZM11.3136 6.82609C11.2934 6.93733 11.2346 7.03791 11.1477 7.1102C11.0608 7.18249 10.9512 7.22188 10.8381 7.22147H3.68413L2.98425 3.37002H11.94L11.3136 6.82609Z" fill="black"/>
</svg>
